<svg width="58" height="57" viewBox="0 0 58 57" fill="none" xmlns="http://www.w3.org/2000/svg">
<path d="M20.6693 24.8517C23.6405 29.9741 27.9849 34.2333 33.2097 37.1461L36.0161 33.2941C36.9493 32.0138 38.7106 31.6181 40.1193 32.3724C44.583 34.763 49.5159 36.2157 54.6617 36.6151C56.3119 36.7433 57.5843 38.0933 57.5843 39.7162V53.5986C57.5843 55.1934 56.3538 56.5298 54.7356 56.6928C53.0543 56.8623 51.3581 56.9476 49.652 56.9476C22.4906 56.9476 0.471924 35.3606 0.471924 8.73179C0.471924 7.05907 0.558925 5.39622 0.731753 3.74771C0.898045 2.16122 2.26125 0.955048 3.88804 0.955048H18.048C19.7032 0.955048 21.0804 2.20256 21.211 3.82028C21.6183 8.86517 23.1002 13.7016 25.5385 18.0777C26.308 19.4587 25.9044 21.1856 24.5984 22.1002L20.6693 24.8517ZM12.6694 22.8083L18.6977 18.5867C16.9884 14.9692 15.817 11.1327 15.2173 7.17644H6.84652C6.82736 7.69381 6.81774 8.2123 6.81774 8.73179C6.81774 31.9245 25.9954 50.7262 49.652 50.7262C50.1819 50.7262 50.7108 50.7168 51.2385 50.6979V42.4912C47.2032 41.9033 43.29 40.7548 39.5999 39.0791L35.294 44.9894C33.552 44.3259 31.8698 43.5451 30.2573 42.6573L30.0729 42.5544C23.8553 39.0881 18.6887 34.0227 15.153 27.9269L15.0481 27.7462C14.1424 26.1654 13.3461 24.5161 12.6694 22.8083Z" fill="black"/>
</svg>
