<svg width="20" height="13" viewBox="0 0 20 13" fill="none" xmlns="http://www.w3.org/2000/svg">
<path d="M1.57908 12.5551C1.33712 12.5551 1.13381 12.4723 0.969156 12.3068C0.804497 12.1414 0.722168 11.935 0.722168 11.6879C0.722168 11.4447 0.804497 11.2418 0.969156 11.0792C1.13381 10.9167 1.33712 10.8355 1.57908 10.8355H18.2752C18.5171 10.8355 18.7214 10.9182 18.8881 11.0837C19.0548 11.2492 19.1381 11.4535 19.1381 11.6967C19.1381 11.9438 19.0548 12.1486 18.8881 12.3111C18.7214 12.4738 18.5171 12.5551 18.2752 12.5551H1.57908ZM1.57908 7.15305C1.33712 7.15305 1.13381 7.07022 0.969156 6.90455C0.804497 6.73906 0.722168 6.53474 0.722168 6.29161C0.722168 6.04865 0.804497 5.84584 0.969156 5.6832C1.13381 5.52055 1.33712 5.43923 1.57908 5.43923H18.2752C18.5171 5.43923 18.7214 5.52206 18.8881 5.68772C19.0548 5.85322 19.1381 6.05754 19.1381 6.30067C19.1381 6.54363 19.0548 6.74644 18.8881 6.90908C18.7214 7.07173 18.5171 7.15305 18.2752 7.15305H1.57908ZM1.57908 1.75679C1.33712 1.75679 1.13381 1.67405 0.969156 1.50855C0.804497 1.34305 0.722168 1.13672 0.722168 0.889569C0.722168 0.646438 0.804497 0.443633 0.969156 0.281154C1.13381 0.118508 1.33712 0.0371857 1.57908 0.0371857H18.2752C18.5171 0.0371857 18.7214 0.119934 18.8881 0.285431C19.0548 0.450928 19.1381 0.655242 19.1381 0.898373C19.1381 1.14553 19.0548 1.35043 18.8881 1.51308C18.7214 1.67556 18.5171 1.75679 18.2752 1.75679H1.57908Z" fill="white"/>
</svg>
