<svg width="38" height="28" viewBox="0 0 38 28" fill="none" xmlns="http://www.w3.org/2000/svg">
<path d="M21.6096 16.271C20.2207 16.271 19.0401 15.7849 18.0679 14.8127C17.0957 13.8404 16.6096 12.6599 16.6096 11.271C16.6096 9.88211 17.0957 8.70155 18.0679 7.72933C19.0401 6.75711 20.2207 6.271 21.6096 6.271C22.9985 6.271 24.179 6.75711 25.1513 7.72933C26.1235 8.70155 26.6096 9.88211 26.6096 11.271C26.6096 12.6599 26.1235 13.8404 25.1513 14.8127C24.179 15.7849 22.9985 16.271 21.6096 16.271ZM8.51542 22.3335C7.72847 22.3335 7.05694 22.0554 6.50083 21.4993C5.94472 20.9432 5.66667 20.2717 5.66667 19.4847V3.05725C5.66667 2.27391 5.94472 1.60322 6.50083 1.04516C7.05694 0.487386 7.72847 0.208496 8.51542 0.208496H34.7238C35.5043 0.208496 36.1726 0.487386 36.7288 1.04516C37.2846 1.60322 37.5625 2.27391 37.5625 3.05725V19.4847C37.5625 20.2717 37.2846 20.9432 36.7288 21.4993C36.1726 22.0554 35.5043 22.3335 34.7238 22.3335H8.51542ZM12.5625 19.6043H30.6667C30.6667 18.4377 31.0694 17.4516 31.875 16.646C32.6806 15.8404 33.6667 15.4377 34.8333 15.4377V7.10433C33.6667 7.10433 32.6806 6.69989 31.875 5.891C31.0694 5.08211 30.6667 4.09766 30.6667 2.93766H12.5625C12.5625 4.09766 12.1597 5.08211 11.3542 5.891C10.5486 6.69989 9.5625 7.10433 8.39583 7.10433V15.4377C9.5625 15.4377 10.5486 15.8404 11.3542 16.646C12.1597 17.4516 12.5625 18.4377 12.5625 19.6043ZM30.9137 27.5627H3.27625C2.49569 27.5627 1.82736 27.2847 1.27125 26.7289C0.715417 26.1728 0.4375 25.5045 0.4375 24.7239V7.08641C0.4375 6.68558 0.574583 6.34877 0.84875 6.076C1.12292 5.80322 1.46139 5.66683 1.86417 5.66683C2.26694 5.66683 2.60292 5.80322 2.87208 6.076C3.14153 6.34877 3.27625 6.68558 3.27625 7.08641V24.7239H30.9137C31.3146 24.7239 31.6514 24.861 31.9242 25.1352C32.1969 25.4093 32.3333 25.7478 32.3333 26.1506C32.3333 26.5534 32.1969 26.8893 31.9242 27.1585C31.6514 27.4279 31.3146 27.5627 30.9137 27.5627Z" fill="#222222"/>
</svg>
