<svg width="30" height="35" viewBox="0 0 30 35" fill="none" xmlns="http://www.w3.org/2000/svg">
<path d="M16.7629 30.3025L15.0666 30.2925C11.0677 30.2128 7.66718 28.7419 4.86495 25.88C2.06273 23.0181 0.661621 19.5843 0.661621 15.5787C0.661621 11.5135 2.10454 8.04653 4.99037 5.17792C7.8762 2.30931 11.3656 0.875 15.4587 0.875C17.4773 0.875 19.3486 1.23917 21.0725 1.9675C22.7961 2.69555 24.2979 3.71347 25.5779 5.02125C26.8576 6.32903 27.8616 7.8725 28.59 9.65167C29.3183 11.4311 29.6825 13.3718 29.6825 15.4737C29.6825 19.219 28.6931 22.6932 26.7145 25.8962C24.7359 29.0996 22.2075 31.7337 19.1291 33.7987C18.908 33.951 18.6713 34.0254 18.4191 34.0221C18.1672 34.0187 17.9306 33.9656 17.7095 33.8625C17.4887 33.7658 17.3108 33.6139 17.1758 33.4067C17.0408 33.1994 16.9627 32.9682 16.9416 32.7129L16.7629 30.3025ZM19.542 30.0571C21.8198 28.1404 23.6045 25.8818 24.8962 23.2812C26.1879 20.6807 26.8337 18.0782 26.8337 15.4737C26.8337 12.0293 25.7573 9.20986 23.6045 7.01542C21.4518 4.82097 18.7365 3.72375 15.4587 3.72375C12.1254 3.72375 9.29898 4.88181 6.97954 7.19792C4.66009 9.51403 3.50037 12.3143 3.50037 15.5987C3.50037 18.8765 4.66009 21.6751 6.97954 23.9946C9.29898 26.314 12.0976 27.4737 15.3754 27.4737H19.542V30.0571ZM15.4687 25.335C15.9398 25.335 16.338 25.1724 16.6633 24.8471C16.9888 24.5215 17.1516 24.1232 17.1516 23.6521C17.1516 23.1876 16.9888 22.7928 16.6633 22.4675C16.338 22.1419 15.9398 21.9792 15.4687 21.9792C14.9976 21.9792 14.5994 22.1419 14.2741 22.4675C13.9486 22.7928 13.7858 23.1876 13.7858 23.6521C13.7858 24.1232 13.9486 24.5215 14.2741 24.8471C14.5994 25.1724 14.9976 25.335 15.4687 25.335ZM11.387 11.5038C11.6848 11.6215 11.9773 11.6215 12.2645 11.5038C12.5515 11.386 12.8055 11.1921 13.0266 10.9221C13.2633 10.5743 13.5902 10.3012 14.0075 10.1029C14.425 9.90458 14.9431 9.80542 15.562 9.80542C16.2376 9.80542 16.8258 9.99153 17.3266 10.3637C17.8272 10.736 18.0775 11.2526 18.0775 11.9137C18.0775 12.4351 17.93 12.9683 17.635 13.5133C17.34 14.0581 16.8447 14.6783 16.1491 15.3742C15.5166 16.0131 15.048 16.5822 14.7433 17.0817C14.4383 17.5808 14.2858 18.0183 14.2858 18.3942C14.2858 18.7194 14.3844 19.0015 14.5816 19.2404C14.7786 19.4793 15.0398 19.5987 15.3654 19.5987C15.6843 19.5987 15.9545 19.4999 16.1762 19.3021C16.3979 19.1043 16.5463 18.8526 16.6216 18.5471C16.725 18.2482 16.8847 17.9215 17.1008 17.5671C17.3172 17.2126 17.6515 16.806 18.1037 16.3471C18.949 15.4882 19.54 14.7168 19.8766 14.0329C20.2133 13.349 20.3816 12.6361 20.3816 11.8942C20.3816 10.5686 19.9216 9.51028 19.0016 8.71917C18.0816 7.92806 16.9516 7.5325 15.6116 7.5325C14.7863 7.5325 13.9245 7.72 13.0262 8.095C12.1279 8.47 11.4737 9.03972 11.0637 9.80417C10.8706 10.1431 10.8002 10.4815 10.8525 10.8196C10.9047 11.1579 11.0829 11.386 11.387 11.5038Z" fill="#222222"/>
</svg>
