<svg width="19" height="19" viewBox="0 0 19 19" fill="none" xmlns="http://www.w3.org/2000/svg">
<path d="M7.43359 0.61705C9.11443 0.61705 10.5272 1.20374 11.7012 2.3856C12.8763 3.56861 13.459 4.98354 13.459 6.65904C13.459 7.33165 13.3535 7.97176 13.1436 8.58189C12.9341 9.19058 12.6189 9.76548 12.1943 10.3065L11.917 10.659L12.2354 10.9745L18.2861 16.9745L18.2881 16.9774C18.3587 17.0466 18.3935 17.1227 18.3936 17.2401C18.3936 17.3582 18.3583 17.4384 18.2842 17.5126L18.2822 17.5145C18.2049 17.5927 18.123 17.6278 18.0068 17.6278C17.8918 17.6277 17.821 17.5938 17.7568 17.5253L17.751 17.5184L17.7441 17.5126L11.7197 11.493L11.3916 11.1659L11.0381 11.4657C10.5894 11.8465 10.0604 12.1476 9.44531 12.3661H9.44434C8.83436 12.5828 8.17808 12.6932 7.47168 12.6932C5.76061 12.6932 4.33026 12.1056 3.15039 10.9247C1.96838 9.74126 1.38281 8.32716 1.38281 6.65514C1.38285 4.98336 1.96892 3.57 3.15234 2.38658C4.33511 1.20366 5.75251 0.617055 7.43359 0.61705ZM7.44824 1.32506C5.96713 1.32506 4.69235 1.84823 3.65332 2.88658C2.61576 3.92377 2.09085 5.18937 2.09082 6.65514C2.09082 8.12087 2.61528 9.38645 3.65234 10.4237C4.69087 11.4623 5.96602 11.9852 7.44824 11.9852C8.91829 11.9852 10.182 11.4613 11.209 10.4217C12.2341 9.38405 12.751 8.11893 12.751 6.65514C12.7509 5.19129 12.2338 3.92616 11.208 2.88853C10.1806 1.84914 8.91725 1.32507 7.44824 1.32506Z" fill="white" stroke="white" stroke-width="1.00606"/>
</svg>
