<svg width="71" height="63" viewBox="0 0 71 63" fill="none" xmlns="http://www.w3.org/2000/svg">
<path d="M45.3903 6.63482C45.1832 7.62987 45.0747 8.65974 45.0747 9.71441C45.0747 10.7691 45.1832 11.799 45.3903 12.794H8.8175L32.6462 33.3102L48.5771 19.3887C49.9231 21.0131 51.6008 22.365 53.5099 23.3463L32.6775 41.5512L7.20336 19.6182V55.9082H57.6984V24.8043C58.7181 25.0063 59.7735 25.1124 60.8544 25.1124C61.9353 25.1124 62.9906 25.0063 64.0103 24.8043V58.9878C64.0103 60.6887 62.5974 62.0674 60.8544 62.0674H4.04742C2.30446 62.0674 0.891479 60.6887 0.891479 58.9878V9.71441C0.891479 8.01362 2.30446 6.63482 4.04742 6.63482H45.3903ZM60.8544 0.475647C66.0834 0.475647 70.3222 4.612 70.3222 9.71441C70.3222 14.8168 66.0834 18.9532 60.8544 18.9532C55.6253 18.9532 51.3865 14.8168 51.3865 9.71441C51.3865 4.612 55.6253 0.475647 60.8544 0.475647Z" fill="black"/>
</svg>
