<svg width="17" height="21" viewBox="0 0 17 21" fill="none" xmlns="http://www.w3.org/2000/svg">
<path d="M2.15693 20.5071C1.69414 20.5071 1.29289 20.3372 0.95318 19.9973C0.613299 19.6576 0.443359 19.2564 0.443359 18.7936V5.89512C0.443359 5.43066 0.613299 5.02798 0.95318 4.68709C1.29289 4.34604 1.69414 4.17551 2.15693 4.17551H4.76716V3.924C4.7752 2.84768 5.15365 1.93778 5.9025 1.1943C6.65117 0.450825 7.56409 0.0790863 8.64124 0.0790863C9.7184 0.0790863 10.6317 0.450825 11.381 1.1943C12.1305 1.93778 12.5093 2.84768 12.5173 3.924V4.17551H15.1276C15.592 4.17551 15.9947 4.34604 16.3356 4.68709C16.6766 5.02798 16.8472 5.43066 16.8472 5.89512V18.7936C16.8472 19.2564 16.6766 19.6576 16.3356 19.9973C15.9947 20.3372 15.592 20.5071 15.1276 20.5071H2.15693ZM2.15693 18.7936H15.1276V5.89512H12.5173V8.05664C12.5173 8.29843 12.4345 8.50166 12.2688 8.66632C12.1033 8.83097 11.899 8.9133 11.6559 8.9133C11.4129 8.9133 11.2101 8.83097 11.0475 8.66632C10.8848 8.50166 10.8035 8.29843 10.8035 8.05664V5.89512H6.48098V8.05664C6.48098 8.29843 6.39815 8.50166 6.23248 8.66632C6.06699 8.83097 5.86267 8.9133 5.61954 8.9133C5.37658 8.9133 5.17377 8.83097 5.01113 8.66632C4.84848 8.50166 4.76716 8.29843 4.76716 8.05664V5.89512H2.15693V18.7936ZM6.48676 4.17551H10.7977V3.924C10.7897 3.3269 10.5785 2.82345 10.1642 2.41365C9.74984 2.00368 9.24237 1.7987 8.64175 1.7987C8.04096 1.7987 7.53366 2.00368 7.11983 2.41365C6.70583 2.82345 6.49481 3.3269 6.48676 3.924V4.17551Z" fill="white"/>
</svg>
