<svg width="38" height="28" viewBox="0 0 38 28" fill="none" xmlns="http://www.w3.org/2000/svg">
<path d="M8.79684 27.5208C7.41934 27.5208 6.24143 27.0461 5.26309 26.0967C4.28476 25.1475 3.78893 23.9833 3.77559 22.6042H2.25601C1.85518 22.6042 1.51837 22.4678 1.24559 22.195C0.972815 21.9222 0.836426 21.5854 0.836426 21.1846V3.27625C0.836426 2.50958 1.11795 1.84486 1.68101 1.28208C2.24379 0.719029 2.90851 0.4375 3.67518 0.4375H24.9614C25.742 0.4375 26.4102 0.715556 26.966 1.27167C27.5221 1.8275 27.8002 2.49569 27.8002 3.27625V7.27625H30.686C31.1335 7.27625 31.5575 7.37625 31.9581 7.57625C32.3584 7.77597 32.6907 8.05583 32.9552 8.41583L37.6814 14.7037C37.7714 14.8237 37.8406 14.9553 37.8889 15.0983C37.9373 15.2414 37.9614 15.3964 37.9614 15.5633V21.1846C37.9614 21.5854 37.825 21.9222 37.5523 22.195C37.2795 22.4678 36.9427 22.6042 36.5418 22.6042H34.8835C34.8635 23.9786 34.366 25.1417 33.391 26.0933C32.416 27.045 31.2398 27.5208 29.8623 27.5208C28.4845 27.5208 27.3064 27.0461 26.3281 26.0967C25.35 25.1475 24.8543 23.9833 24.841 22.6042H13.8085C13.7885 23.9719 13.2927 25.1333 12.321 26.0883C11.3493 27.0433 10.1746 27.5208 8.79684 27.5208ZM8.79184 24.9012C9.45851 24.9012 10.028 24.6651 10.5002 24.1929C10.9724 23.7207 11.2085 23.1512 11.2085 22.4846C11.2085 21.8179 10.9724 21.2485 10.5002 20.7762C10.028 20.304 9.45851 20.0679 8.79184 20.0679C8.12518 20.0679 7.55573 20.304 7.08351 20.7762C6.61129 21.2485 6.37518 21.8179 6.37518 22.4846C6.37518 23.1512 6.61129 23.7207 7.08351 24.1929C7.55573 24.6651 8.12518 24.9012 8.79184 24.9012ZM3.67518 19.7654H4.63518C5.10518 19.0487 5.6949 18.4781 6.40434 18.0533C7.11351 17.6289 7.89573 17.4167 8.75101 17.4167C9.60629 17.4167 10.3953 17.6337 11.1181 18.0679C11.8406 18.5024 12.4348 19.0682 12.9006 19.7654H24.9614V3.27625H3.67518V19.7654ZM29.8573 24.9012C30.5239 24.9012 31.0934 24.6651 31.5656 24.1929C32.0378 23.7207 32.2739 23.1512 32.2739 22.4846C32.2739 21.8179 32.0378 21.2485 31.5656 20.7762C31.0934 20.304 30.5239 20.0679 29.8573 20.0679C29.1906 20.0679 28.6211 20.304 28.1489 20.7762C27.6767 21.2485 27.4406 21.8179 27.4406 22.4846C27.4406 23.1512 27.6767 23.7207 28.1489 24.1929C28.6211 24.6651 29.1906 24.9012 29.8573 24.9012ZM27.8002 16.2917H35.311L30.686 10.125H27.8002V16.2917Z" fill="#222222"/>
</svg>
