<svg width="17" height="17" viewBox="0 0 17 17" fill="none" xmlns="http://www.w3.org/2000/svg">
<path d="M8.35596 10.2307C9.37253 10.2307 10.3778 10.3559 11.3716 10.6076C12.2494 10.83 13.1655 11.1402 14.1206 11.5383L14.5327 11.7141C15.0026 11.9231 15.3711 12.2255 15.6499 12.6232C15.9159 13.0031 16.0591 13.4697 16.0591 14.0471V14.8596C16.0591 15.1964 15.9459 15.473 15.7046 15.715C15.465 15.9553 15.1874 16.0704 14.8433 16.0705H1.87256C1.53067 16.0705 1.25462 15.9559 1.01611 15.716C0.775743 15.4741 0.661621 15.197 0.661621 14.8596V14.0471C0.661621 13.4731 0.804787 13.007 1.07178 12.6252C1.355 12.2199 1.71778 11.9148 2.1665 11.7043L2.16553 11.7033C3.27045 11.2086 4.32666 10.8416 5.3335 10.5969C6.33834 10.3526 7.34588 10.2307 8.35596 10.2307ZM8.35498 10.9436C7.37169 10.9436 6.41157 11.0413 5.47705 11.2375C4.52813 11.4367 3.52148 11.8014 2.4585 12.3225H2.45752C2.13046 12.4832 1.8688 12.7294 1.67236 13.0432C1.47509 13.3586 1.36963 13.7046 1.36963 14.0715V15.3635H15.3462V14.0715C15.3462 13.6985 15.2327 13.3492 15.0239 13.0334C14.8208 12.726 14.5584 12.4839 14.2358 12.3244L14.231 12.3215L13.8286 12.134C12.8979 11.7131 12.0256 11.4128 11.2144 11.2385C10.2991 11.0418 9.34565 10.9436 8.35498 10.9436ZM8.35596 0.849808C9.39048 0.849808 10.2005 1.1744 10.8296 1.80196C11.4585 2.42898 11.7837 3.23757 11.7837 4.27168C11.7836 5.30542 11.459 6.11329 10.8306 6.73946C10.2015 7.3661 9.39069 7.68965 8.35596 7.68965C7.32138 7.68957 6.51311 7.36633 5.88721 6.74043C5.26119 6.11437 4.9371 5.30614 4.93701 4.27168C4.93701 3.23709 5.26102 2.42785 5.88721 1.80098H5.88818C6.5141 1.17431 7.32171 0.849884 8.35596 0.849808ZM8.35889 1.55782C7.59926 1.55782 6.9397 1.81071 6.41943 2.3293C5.89917 2.84831 5.64512 3.5073 5.64502 4.2668C5.64502 5.02763 5.89795 5.68903 6.41748 6.20918V6.20821C6.93672 6.7285 7.59605 6.98254 8.35596 6.98262C9.11577 6.98262 9.77616 6.72934 10.2964 6.21016C10.8165 5.69061 11.0697 5.03081 11.0698 4.27071C11.0698 3.50947 10.8173 2.84855 10.2974 2.3293C9.77794 1.8105 9.11843 1.55783 8.35889 1.55782Z" fill="white" stroke="white" stroke-width="1.00606"/>
</svg>
