<svg width="63" height="63" viewBox="0 0 63 63" fill="none" xmlns="http://www.w3.org/2000/svg">
<path d="M16.5637 51.5113L18.8361 52.8128C22.6325 54.9869 26.9471 56.1479 31.4495 56.1479C45.3034 56.1479 56.5341 45.1178 56.5341 31.5112C56.5341 17.9048 45.3034 6.87454 31.4495 6.87454C17.5955 6.87454 6.36478 17.9048 6.36478 31.5112C6.36478 35.9345 7.54762 40.1735 9.76274 43.9029L11.0871 46.1325L9.03808 53.5285L16.5637 51.5113ZM0.106735 62.3071L4.34591 47.0062C1.64248 42.4549 0.0936279 37.1607 0.0936279 31.5112C0.0936279 14.5031 14.1321 0.715363 31.4495 0.715363C48.7666 0.715363 62.8052 14.5031 62.8052 31.5112C62.8052 48.5192 48.7666 62.3071 31.4495 62.3071C25.6991 62.3071 20.3104 60.787 15.6771 58.1334L0.106735 62.3071ZM20.1342 17.0628C20.554 17.0339 20.9752 17.0294 21.3955 17.0496C21.5653 17.0605 21.7343 17.0798 21.9035 17.099C22.4029 17.1556 22.952 17.4543 23.1366 17.8654C24.072 19.9485 24.9796 22.0435 25.8594 24.1499C26.0534 24.6149 25.9365 25.2176 25.5671 25.8008C25.3796 26.0998 25.0851 26.5192 24.744 26.9482C24.3894 27.3938 23.6262 28.2133 23.6262 28.2133C23.6262 28.2133 23.317 28.5773 23.4335 29.0303C23.4789 29.2016 23.6237 29.451 23.755 29.6607C23.8277 29.7768 23.8952 29.8806 23.939 29.9524C24.7415 31.2683 25.8202 32.6023 27.1377 33.8567C27.5153 34.216 27.8815 34.5828 28.2753 34.9234C29.7437 36.195 31.4049 37.234 33.1991 38.0036L33.2151 38.0107C33.4801 38.1228 33.6161 38.1841 34.004 38.3458C34.1997 38.4271 34.3997 38.4973 34.6051 38.5506C34.6794 38.5697 34.7556 38.5804 34.8321 38.5857C35.3391 38.6155 35.6323 38.2962 35.7574 38.1493C38.026 35.45 38.2336 35.2739 38.2493 35.2751V35.28C38.5475 34.9715 39.0162 34.8643 39.4345 34.8895C39.6255 34.9009 39.8155 34.937 39.9892 35.0149C41.6567 35.762 44.3831 36.9273 44.3831 36.9273L46.2064 37.7323C46.5118 37.8771 46.7906 38.218 46.8041 38.5493C46.8122 38.7554 46.8348 39.088 46.7599 39.6965C46.6617 40.4932 46.4149 41.4525 46.1697 41.9551C45.9973 42.3077 45.774 42.6205 45.5144 42.8854C45.1623 43.2445 44.9008 43.4625 44.4775 43.7723C44.2197 43.9608 44.0862 44.0495 44.0862 44.0495C43.6506 44.3193 43.4051 44.4541 42.8862 44.7254C42.0791 45.1477 41.1873 45.3903 40.2739 45.4365C39.6916 45.4658 39.1109 45.507 38.5293 45.4762C38.5036 45.4747 36.7476 45.2099 36.7476 45.2099C32.2892 44.0581 28.1659 41.9005 24.7059 38.9084C23.9985 38.2968 23.3424 37.635 22.6728 36.9803C19.8851 34.2545 17.7746 31.3154 16.4949 28.5351C15.8639 27.1641 15.4643 25.6957 15.458 24.1848C15.4464 22.3157 16.0694 20.4962 17.2286 19.0138C17.4572 18.7216 17.6741 18.4185 18.0483 18.0715C18.4446 17.7039 18.6968 17.5066 18.9685 17.3701C19.3307 17.1881 19.7285 17.0908 20.1342 17.0628Z" fill="black"/>
</svg>
